<?xml version="1.0" standalone="no"?><!DOCTYPE svg PUBLIC "-//W3C//DTD SVG 1.1//EN" "http://www.w3.org/Graphics/SVG/1.1/DTD/svg11.dtd"><svg t="1763963589707" class="icon" viewBox="0 0 1024 1024" version="1.1" xmlns="http://www.w3.org/2000/svg" p-id="1404" xmlns:xlink="http://www.w3.org/1999/xlink" width="200" height="200"><path d="M398.222222 568.888889a56.888889 56.888889 0 0 1 56.888889 56.888889v227.555555a56.888889 56.888889 0 0 1-56.888889 56.888889H170.666667a56.888889 56.888889 0 0 1-56.888889-56.888889v-227.555555a56.888889 56.888889 0 0 1 56.888889-56.888889h227.555555z m0 56.888889H170.666667v227.555555h227.555555v-227.555555zM853.333333 568.888889a56.888889 56.888889 0 0 1 56.888889 56.888889v227.555555a56.888889 56.888889 0 0 1-56.888889 56.888889h-227.555555a56.888889 56.888889 0 0 1-56.888889-56.888889v-227.555555a56.888889 56.888889 0 0 1 56.888889-56.888889h227.555555z m0 56.888889h-227.555555v227.555555h227.555555v-227.555555z" fill="#ffffff" p-id="1405"></path><path d="M540.444444 398.222222v85.333334H739.555556a28.444444 28.444444 0 0 1 27.989333 23.324444L768 512v56.888889h-56.888889v-28.444445h-398.222222v28.444445h-56.888889V512a28.444444 28.444444 0 0 1 28.444444-28.444444h199.111112V398.222222h56.888888z" fill="#ffffff" p-id="1406"></path><path d="M512 113.777778a170.666667 170.666667 0 1 1 0 341.333333 170.666667 170.666667 0 0 1 0-341.333333z m0 56.888889a113.777778 113.777778 0 1 0 0 227.555555 113.777778 113.777778 0 0 0 0-227.555555z" fill="#ffffff" p-id="1407"></path></svg>