<?xml version="1.0" standalone="no"?><!DOCTYPE svg PUBLIC "-//W3C//DTD SVG 1.1//EN" "http://www.w3.org/Graphics/SVG/1.1/DTD/svg11.dtd"><svg class="icon" width="256px" height="256.00px" viewBox="0 0 1024 1024" version="1.1" xmlns="http://www.w3.org/2000/svg"><path d="M112 482.592v288.64h399.792a274.544 274.544 0 0 1-8.32-66.848c-0.112-63.104 13.232-104.112 46.688-161.776 11.808-20.368 28.304-39.6 47.456-56.752L112 482.592z m-48-48.32l782.464 5.264v23.136c-38.48-4.784-70-5.632-94.56-2.512-45.344 5.744-125.68 47.008-160.224 106.528-24.32 41.92-40.32 77.024-40.192 137.6 0.08 40.384 10.464 78.704 31.168 114.96H64V434.272zM771.36 832c77.712 0 140.64-62.688 140.64-139.904 0-77.232-62.928-139.92-140.64-139.92-77.696 0-140.624 62.688-140.624 139.92 0 77.232 62.912 139.904 140.64 139.904z m-188.624-139.904c0-103.776 84.448-187.92 188.64-187.92C875.52 504.16 960 588.32 960 692.096 960 795.872 875.52 880 771.36 880c-104.16 0-188.624-84.112-188.624-187.904zM784.448 439.52l-664.8-5.28v-192.32L217.856 144h241.696v75.776h323.52l1.392 219.76z m-35.792-6.144V254.24h-69.856v179.152h69.856zM580.256 254.24h-13.232v179.152h69.856V254.24h-56.64z m-27.2 399.632H357.408v-96.464h195.616v96.48zM468.496 254.24h-13.28v179.152h69.872V254.24h-56.592z m-207.136 27.792l-99.568 0.048v151.312h265.488V185.344h-165.92v96.688zM848.64 628.048h-72.8a9.888 9.888 0 0 1-5.104-1.424l-28.8-17.28a19.808 19.808 0 0 0-10.16-2.832h-36.928c-8.48 0.016-15.36 7.232-15.376 16.16v129.184c0 8.912 6.88 16.128 15.36 16.144h153.808c8.48 0 15.36-7.232 15.376-16.16v-107.648c0-8.912-6.88-16.144-15.376-16.16z m-7.68 114c0 1.6-1.952 2.88-4.336 2.88h-129.76c-2.4 0-4.32-1.28-4.32-2.88v-43.248h138.4v43.248z m-135.584-64.768v-34.016c0-2.672 1.824-4.848 4.064-4.848h29.168c1.408 0 2.784 0.432 4 1.28l22.752 15.584c2.448 1.68 5.232 2.56 8.048 2.56h57.52c2.24 0 4.048 2.192 4.048 4.864v14.576h-129.6z" fill="#ffffff" /></svg>