<?xml version="1.0" standalone="no"?><!DOCTYPE svg PUBLIC "-//W3C//DTD SVG 1.1//EN" "http://www.w3.org/Graphics/SVG/1.1/DTD/svg11.dtd"><svg t="1764315239882" class="icon" viewBox="0 0 1024 1024" version="1.1" xmlns="http://www.w3.org/2000/svg" p-id="7962" width="256" height="256" xmlns:xlink="http://www.w3.org/1999/xlink"><path d="M660.2496 435.0976c107.9552 0 180.992 39.1936 184.32 91.1872l0.1024 3.7376v237.4144c-1.2544 53.4528-74.368 93.7472-184.4224 93.7472-107.7248 0-180.736-39.2704-184.0896-91.1872l-0.128-3.712v-236.288c0-53.76 73.8816-94.8992 184.2176-94.8992z m-124.416 285.0816v46.08c0 13.056 55.2192 35.456 124.416 35.456 66.9696 0 121.0368-21.0176 124.3648-34.1504l0.1536-1.28v-46.0288l-3.2 1.536c-28.8512 12.8-66.432 20.096-110.9248 21.0688l-10.3936 0.1024c-48.256 0-89.4208-7.5008-120.9344-21.1968l-3.4816-1.5872z m0-118.4512v46.336c0 13.1072 55.168 35.5072 124.416 35.5072 66.9952 0.0768 121.0368-20.992 124.3648-34.2272l0.1536-1.28v-46.3104l-3.3792 1.6128c-29.184 12.8-66.816 20.1728-110.848 21.1456l-10.2912 0.128c-48.1792 0-89.344-7.552-120.9088-21.2992l-3.5072-1.6128z m124.416-107.264c-69.1712 0-124.416 22.4768-124.416 35.5584 0 13.0304 55.2192 35.4304 124.416 35.4304 69.2736 0 124.5184-22.3488 124.5184-35.4304 0-13.1328-55.1936-35.5584-124.5184-35.5584z" fill="#8a8a8a" p-id="7963"></path><path d="M449.4848 160.0256c144.2304 0 265.6256 50.1248 270.08 126.8224l0.1024 4.3776v90.0352c0 16.4352-13.4144 29.7472-29.952 29.7472-15.4112 0-28.16-11.5968-29.7728-26.496l-0.1792-3.2512v-5.3248l-2.7136 1.5872c-46.2592 25.856-114.3296 41.728-185.9072 44.3904l-11.3152 0.3072-10.3424 0.1024c-76.3136 0-150.1696-15.0272-200.192-41.728l-6.9888-3.8912-2.3808-1.4336v99.456c0 29.056 73.472 63.5392 172.032 70.4768l7.8336 0.4864 7.7312 0.3584c10.6496 0.4096 20.2752 6.4256 25.2416 15.7952 4.992 9.3952 4.5568 20.736-1.152 29.696-5.7088 8.96-15.7696 14.208-26.4192 13.7984-66.4064-2.4832-129.536-16.5888-174.7712-39.552l-7.7824-4.1472-3.1232-1.792v99.4048c0 29.056 73.4976 63.5392 172.0576 70.4768l7.8336 0.4864 7.7312 0.3584c10.6496 0.4608 20.2496 6.528 25.1904 15.9232 4.9408 9.3952 4.4544 20.736-1.28 29.6704a29.952 29.952 0 0 1-26.5216 13.6704c-135.3472-6.272-240.896-54.5024-245.0688-126.464l-0.128-4.4288V291.2256c0-79.3088 123.0336-131.2 270.1568-131.2z m0 59.4944c-117.3248 0-210.3552 38.2976-210.3552 71.5008 0 33.2032 93.3888 71.7056 210.3552 71.7056 117.0432 0 210.2784-38.3488 210.2784-71.5008 0-33.28-93.0048-71.7056-210.2784-71.7056z" fill="#8a8a8a" p-id="7964"></path></svg>