<?xml version="1.0" standalone="no"?><!DOCTYPE svg PUBLIC "-//W3C//DTD SVG 1.1//EN" "http://www.w3.org/Graphics/SVG/1.1/DTD/svg11.dtd"><svg class="icon" width="256px" height="256.00px" viewBox="0 0 1024 1024" version="1.1" xmlns="http://www.w3.org/2000/svg"><path d="M96.853333 467.626667a42.666667 42.666667 0 0 1 42.666667 42.666666l0.128 4.138667 0.682667 11.093333c1.024 13.354667 2.858667 28.330667 5.802666 44.544a454.528 454.528 0 0 0 46.378667 135.296c46.378667 85.930667 119.381333 147.456 226.645333 175.872 137.173333 36.309333 245.461333 4.608 330.410667-70.869333 21.333333-18.986667 39.466667-39.338667 54.272-59.605333l6.656-9.386667 5.12-7.68 3.498667-5.845333 1.194666-2.133334a42.666667 42.666667 0 0 1 75.264 40.234667c-15.061333 28.16-44.373333 68.266667-89.301333 108.202667-105.301333 93.482667-242.432 133.674667-408.96 89.6-115.285333-30.549333-200.106667-94.037333-257.792-180.906667v104.277333a42.666667 42.666667 0 0 1-85.034667 4.992l-0.298666-4.992V510.293333a42.666667 42.666667 0 0 1 42.666666-42.666666z m557.44-178.773334a42.666667 42.666667 0 0 1 9.216 55.68l-3.157333 4.352-58.453333 71.637334h48.469333a42.666667 42.666667 0 0 1 4.992 85.077333l-4.992 0.256H554.666667v55.978667h95.744a42.666667 42.666667 0 0 1 4.992 85.077333l-4.992 0.256H554.666667L554.666667 745.813333a42.666667 42.666667 0 0 1-85.034667 4.992L469.333333 745.813333v-98.645333H373.589333a42.666667 42.666667 0 0 1-4.992-85.034667l4.992-0.298666h95.658667v-55.978667H373.632a42.666667 42.666667 0 0 1-4.992-85.034667l4.992-0.298666h48.469333l-58.453333-71.68A42.666667 42.666667 0 0 1 426.112 290.986667l3.626667 3.925333L512 395.733333l82.304-100.821333a42.666667 42.666667 0 0 1 60.032-6.058667z m-1.237333-219.136c102.314667 36.138667 178.602667 96.128 231.424 173.568V133.504a42.666667 42.666667 0 0 1 85.034667-4.992l0.298666 4.992v376.789333l0.042667 4.266667-0.085333 9.130667a42.666667 42.666667 0 0 1-85.162667 1.792l-0.128-4.992c0.341333-15.786667-1.237333-39.509333-6.4-68.437334a421.76 421.76 0 0 0-46.848-132.949333c-42.965333-76.373333-109.824-134.741333-206.592-168.96-133.546667-47.189333-247.552-17.152-343.978667 62.762667-22.826667 18.901333-42.709333 39.253333-59.477333 59.477333l-7.594667 9.472-8.234666 10.965333-3.328 4.949334a42.666667 42.666667 0 1 1-71.936-45.952c17.322667-27.093333 49.450667-65.92 96.085333-104.618667C344.021333 49.493333 488.448 11.52 653.056 69.717333z" fill="#ffffff" /></svg>