<?xml version="1.0" standalone="no"?><!DOCTYPE svg PUBLIC "-//W3C//DTD SVG 1.1//EN" "http://www.w3.org/Graphics/SVG/1.1/DTD/svg11.dtd"><svg class="icon" width="256px" height="182.93px" viewBox="0 0 1433 1024" version="1.1" xmlns="http://www.w3.org/2000/svg"><path d="M1433.6 102.4v819.2c0 10.24 0 25.6-5.12 35.84-15.36 40.96-51.2 66.56-97.28 66.56H102.4c-46.08 0-81.92-25.6-97.28-66.56-5.12-10.24-5.12-25.6-5.12-35.84V102.4c0-10.24 0-25.6 5.12-35.84C20.48 30.72 56.32 0 102.4 0h1228.8c46.08 0 81.92 30.72 97.28 66.56 5.12 10.24 5.12 25.6 5.12 35.84z" fill="#FFFFFF" /><path d="M1331.2 0H102.4C56.32 0 20.48 30.72 5.12 66.56h1423.36C1413.12 30.72 1377.28 0 1331.2 0zM0 138.24V204.8h1433.6V138.24H0z m0 133.12v66.56h1433.6V271.36H0zM0 409.6v66.56h1433.6V409.6H0z m0 138.24V614.4h1433.6v-66.56H0z m0 133.12v66.56h1433.6v-66.56H0zM0 819.2v66.56h1433.6V819.2H0z m5.12 138.24c15.36 35.84 51.2 66.56 97.28 66.56h1228.8c46.08 0 81.92-25.6 97.28-66.56H5.12z" fill="#D02F44" /><path d="M102.4 1024H0v-66.56h5.12c15.36 35.84 51.2 66.56 97.28 66.56zM1433.6 957.44V1024h-102.4c46.08 0 81.92-25.6 97.28-66.56h5.12zM1433.6 0v66.56h-5.12C1413.12 30.72 1377.28 0 1331.2 0h102.4z" fill="#FFFFFF" /><path d="M102.4 0C56.32 0 20.48 30.72 5.12 66.56c-5.12 10.24-5.12 25.6-5.12 35.84V0h102.4z" fill="#FFFFFF" /><path d="M614.4 0v476.16H0V102.4c0-10.24 0-25.6 5.12-35.84C20.48 30.72 56.32 0 102.4 0h512z" fill="#46467F" /><path d="M476.16 66.56v66.56H409.6V66.56H343.04V128H271.36V66.56H204.8V128H138.24V204.8H204.8V266.24H138.24V204.8H66.56V266.24h66.56V327.68H66.56V409.6h71.68V343.04H204.8V409.6h66.56V343.04h66.56V409.6H409.6V343.04h66.56V409.6h66.56V343.04H476.16V271.36h66.56V204.8H476.16V138.24h66.56V66.56H476.16zM209.92 158.72v-20.48h61.44V204.8H209.92v-46.08z m61.44 66.56V204.8h66.56V266.24H271.36v-40.96zM204.8 296.96v-25.6h66.56V332.8H204.8v-35.84z m204.8 20.48v20.48H343.04V271.36H409.6v46.08zM476.16 204.8V266.24H409.6V204.8h66.56zM409.6 158.72V204.8H343.04V138.24H409.6v20.48z" fill="#FDFDFD" /><path d="M138.24 112.64v-46.08H66.56v71.68h71.68z" fill="#FDFDFD" /></svg>