<?xml version="1.0" standalone="no"?><!DOCTYPE svg PUBLIC "-//W3C//DTD SVG 1.1//EN" "http://www.w3.org/Graphics/SVG/1.1/DTD/svg11.dtd"><svg class="icon" width="256px" height="256.00px" viewBox="0 0 1024 1024" version="1.1" xmlns="http://www.w3.org/2000/svg"><path d="M957.952 0H136.704v136.704H36.352C17.408 136.704 0 150.016 0 168.96v68.096c0 18.944 17.92 36.352 36.352 36.352h99.84v68.096H36.352C17.408 341.504 0 354.816 0 373.76v68.096c0 18.944 17.92 36.352 36.352 36.352h99.84v68.608H36.352c-18.944 0-36.352 13.312-36.352 32.256v68.096c0 18.944 17.92 36.352 36.864 36.352h99.84v68.096H36.352c-18.944 0-36.352 13.312-36.352 32.256v68.096c0 18.944 17.92 36.352 36.864 36.352h99.84V1024h821.76c37.888 0 66.048-32.768 66.048-70.144V66.048C1024 28.672 995.84 0 957.952 0zM341.504 955.392H204.8v-68.096h36.352c18.944 0 31.744-17.408 31.744-36.352v-68.096c0-18.944-12.8-32.256-31.744-32.256H204.8v-68.096h36.352c18.944 0 31.744-17.408 31.744-36.352v-68.096c0-18.944-12.8-32.256-31.744-32.256H204.8V477.696h36.352c18.944 0 31.744-17.408 31.744-36.352V373.248c0-18.944-12.8-32.256-31.744-32.256H204.8V272.896h36.352c18.944 0 31.744-17.408 31.744-36.352V168.448c0-18.944-12.8-32.256-31.744-32.256H204.8V68.096h136.192l0.512 887.296z" fill="#ffffff" /></svg>