<?xml version="1.0" standalone="no"?><!DOCTYPE svg PUBLIC "-//W3C//DTD SVG 1.1//EN" "http://www.w3.org/Graphics/SVG/1.1/DTD/svg11.dtd"><svg class="icon" width="256px" height="256.00px" viewBox="0 0 1024 1024" version="1.1" xmlns="http://www.w3.org/2000/svg"><path d="M476.693356 529.706988C476.693356 549.206309 492.500688 565.013632 512 565.013632 531.499312 565.013632 547.306644 549.206309 547.306644 529.706988L547.306644 35.413976C547.306644 15.914655 531.499312 0.107332 512 0.107332 492.500688 0.107332 476.693356 15.914655 476.693356 35.413976L476.693356 529.706988ZM363.341394 7.934436C347.28395 12.868306 331.497979 18.599265 316.03261 25.102412 253.913801 51.223212 197.503776 89.581633 149.99927 137.75463 54.632477 234.463447 0.053666 365.318099 0.053666 504.849481 0.053666 791.568396 229.259843 1024 512 1024 794.740157 1024 1023.946334 791.568396 1023.946334 504.849481 1023.946334 365.318099 969.367523 234.463447 874.00073 137.75463 826.496224 89.581633 770.086199 51.223212 707.96739 25.102412 692.502021 18.599265 676.71605 12.868306 660.658606 7.934436 652.643309 5.471629 644.56296 3.208226 636.423525 1.146852 618.135867-3.484631 599.608335 7.794506 595.04112 26.339507 590.473906 44.884509 601.596522 63.672761 619.884181 68.304243 626.930787 70.088845 633.925933 72.048275 640.86466 74.180295 654.765486 78.451512 668.431663 83.412897 681.821461 89.043271 735.636783 111.672471 784.538091 144.925031 825.733953 186.70061 908.426526 270.556832 955.686817 383.8651 955.686817 504.849481 955.686817 753.339207 757.041471 954.77993 512 954.77993 266.958529 954.77993 68.313183 753.339207 68.313183 504.849481 68.313183 383.8651 115.573474 270.556832 198.266047 186.70061 239.461909 144.925031 288.363217 111.672471 342.178539 89.043271 355.568337 83.412897 369.234514 78.451512 383.13534 74.180295 390.074067 72.048275 397.069213 70.088845 404.115819 68.304243 422.403478 63.672761 433.526094 44.884509 428.95888 26.339507 424.391665 7.794506 405.864133-3.484631 387.576475 1.146852 379.43704 3.208226 371.356691 5.471629 363.341394 7.934436Z" fill="#389BFF" /></svg>