<?xml version="1.0" standalone="no"?><!DOCTYPE svg PUBLIC "-//W3C//DTD SVG 1.1//EN" "http://www.w3.org/Graphics/SVG/1.1/DTD/svg11.dtd"><svg class="icon" width="256px" height="256.00px" viewBox="0 0 1024 1024" version="1.1" xmlns="http://www.w3.org/2000/svg"><path d="M822.857143 146.285714h-621.714286C170.788571 146.285714 146.285714 170.788571 146.285714 201.142857v621.714286c0 30.354286 24.502857 54.857143 54.857143 54.857143h621.714286c30.354286 0 54.857143-24.502857 54.857143-54.857143v-621.714286c0-30.354286-24.502857-54.857143-54.857143-54.857143z m-88.868572 527.725715c0 9.874286-8.045714 17.92-17.92 17.92h-42.057142c0 9.874286-8.045714 17.92-17.92 17.92h-83.748572a17.92 17.92 0 0 1-17.92-17.92H308.297143a17.92 17.92 0 0 1-17.92-17.92v-12.068572c0-9.874286 8.045714-17.92 17.92-17.92h245.76c0-9.874286 8.045714-17.92 17.92-17.92h83.748571c9.874286 0 17.92 8.045714 17.92 17.92h42.057143c9.874286 0 17.92 8.045714 17.92 17.92v12.068572h0.365714z m0-156.16c0 9.874286-8.045714 17.92-17.92 17.92h-245.76c0 9.874286-8.045714 17.92-17.92 17.92h-83.748571a17.92 17.92 0 0 1-17.92-17.92H307.931429a17.92 17.92 0 0 1-17.92-17.92v-12.068572c0-9.874286 8.045714-17.92 17.92-17.92h42.057142c0-9.874286 8.045714-17.92 17.92-17.92h83.748572c9.874286 0 17.92 8.045714 17.92 17.92h245.76c9.874286 0 17.92 8.045714 17.92 17.92v12.068572h0.731428z m0-155.794286c0 9.874286-8.045714 17.92-17.92 17.92h-42.057142c0 9.874286-8.045714 17.92-17.92 17.92h-83.748572a17.92 17.92 0 0 1-17.92-17.92H308.297143a17.92 17.92 0 0 1-17.92-17.92v-12.068572c0-9.874286 8.045714-17.92 17.92-17.92h245.76c0-9.874286 8.045714-17.92 17.92-17.92h83.748571c9.874286 0 17.92 8.045714 17.92 17.92h42.057143c9.874286 0 17.92 8.045714 17.92 17.92v12.068572h0.365714z" fill="#2c2c2c" /></svg>