<?xml version="1.0" standalone="no"?><!DOCTYPE svg PUBLIC "-//W3C//DTD SVG 1.1//EN" "http://www.w3.org/Graphics/SVG/1.1/DTD/svg11.dtd"><svg t="1763956108853" class="icon" viewBox="0 0 1024 1024" version="1.1" xmlns="http://www.w3.org/2000/svg" p-id="1217" xmlns:xlink="http://www.w3.org/1999/xlink" width="200" height="200"><path d="M470.966209 930.66433H161.442789c-26.425163 0-51.254845-10.270912-69.902035-29.017821-18.647191-18.647191-28.918103-43.57659-28.918103-70.001753l0.199435-382.018113c0-22.137306 17.949167-40.186191 40.186191-40.186191 22.237024 0 40.186191 18.048885 40.186192 40.186191l-0.199435 382.217548c0 6.681079 3.390398 11.068653 5.38475 13.063005 1.994352 1.994352 6.381926 5.38475 13.063005 5.384751h309.52342c22.237024 0 40.186191 17.949167 40.186191 40.186191 0 22.237024-17.949167 40.186191-40.186191 40.186192z" fill="#ffffff" p-id="1218"></path><path d="M470.966209 758.45204h-207.412601c-22.237024 0-40.186191-17.949167-40.186192-40.186191s17.949167-40.186191 40.186192-40.186192h207.412601c22.237024 0 40.186191 17.949167 40.186191 40.186192s-17.949167 40.186191-40.186191 40.186191zM201.529263 510.653812c-4.088421 0-8.176843-0.199435-12.165547-0.498588-80.870971-6.880514-152.567923-63.320674-182.682637-143.792774-7.578537-20.142955-8.176843-44.872918-1.695199-64.417567 0-0.099718 0.099718-0.299153 0.099717-0.398871L87.352615 63.220956c0.299153-0.797741 0.598306-1.595482 0.897458-2.293504 15.35651-36.895511 51.055409-60.728016 90.942448-60.728017v40.186192-40.186192l664.617782-0.199435c40.385627 0 76.283961 24.131658 91.441036 61.525757 0.299153 0.797741 0.598306 1.495764 0.897458 2.293505l80.472101 237.926185c0 0.099718 0 0.099718 0.099717 0.199436 6.581361 19.644367 5.883338 44.374331-1.794916 64.517285-30.214432 80.172948-101.911384 136.413672-182.58292 143.393904-4.088421 0.39887-8.176843 0.498588-12.265264 0.498588-50.257669 0-100.515337-26.325446-145.388256-75.585939-8.376278 8.475996-17.051709 16.353686-26.026293 23.633071-42.679131 34.302853-90.743013 52.351738-138.906612 52.152303-48.263317-0.199435-94.432564-17.84945-137.111695-52.451456-8.775149-7.179667-17.350862-14.857922-25.527705-23.2342-44.872918 49.36021-95.130587 75.785373-145.587691 75.785373zM81.170124 327.273152c-0.598306 1.994352-0.598306 7.379102 0.698023 10.769501 19.345214 51.553997 64.118415 87.651767 114.276366 91.939624 18.447755 1.595482 38.291557-5.185315 59.032817-20.043237 19.843802-14.259616 39.887039-35.599182 57.836206-61.625475 7.379102-10.669783 19.345214-17.151427 32.308501-17.350862 12.963288-0.299153 25.228552 5.683903 32.906807 16.054533 0.39887 0.498588 0.897458 1.196611 1.595482 2.09407 17.550297 24.231376 65.315026 80.571818 130.330898 80.870971h0.498588c65.614179 0 113.67806-56.539877 131.328075-80.970689 0.598306-0.897458 1.196611-1.595482 1.495764-2.094069 7.777973-10.270912 20.043237-16.253968 32.906807-16.054533 12.86357 0.199435 24.929399 6.681079 32.208784 17.251144 53.94722 77.879443 99.717597 82.865323 116.869023 81.369559 49.958516-4.287857 94.831434-40.285909 114.176648-91.640472 1.296329-3.390398 1.296329-8.775149 0.698023-10.7695L860.562859 90.942448c-2.991528-6.481644-9.473172-10.669783-16.752556-10.669783l-664.617782 0.199435c-7.079949 0-13.461876 4.088421-16.453403 10.370631L81.170124 327.273152z" fill="#ffffff" p-id="1219"></path><path d="M788.367319 639.887818c40.585062 0 78.677184 15.75538 107.395852 44.474048 28.718668 28.718668 44.474048 66.81079 44.474048 107.395851s-15.75538 78.677184-44.474048 107.395852c-28.718668 28.718668-66.81079 44.474048-107.395852 44.474048s-78.677184-15.75538-107.395851-44.474048c-28.718668-28.718668-44.474048-66.81079-44.474049-107.395852s15.75538-78.677184 44.474049-107.395851c28.718668-28.718668 66.81079-44.474048 107.395851-44.474048m0-80.372383C660.13049 559.515435 556.125037 663.520888 556.125037 791.757717s104.005453 232.242283 232.242282 232.242283 232.242283-104.005453 232.242283-232.242283-104.005453-232.242283-232.242283-232.242282z" fill="#ffffff" p-id="1220"></path><path d="M786.771838 914.410361c-17.051709 0-30.912455-13.860746-30.912455-30.912455v-80.970688c0-17.051709 13.860746-30.912455 30.912455-30.912455s30.912455 13.860746 30.912455 30.912455v80.970688c0 17.051709-13.860746 30.912455-30.912455 30.912455z" fill="#ffffff" p-id="1221"></path><path d="M786.771838 715.872626m-35.898335 0a35.898335 35.898335 0 1 0 71.796669 0 35.898335 35.898335 0 1 0-71.796669 0Z" fill="#ffffff" p-id="1222"></path></svg>