<?xml version="1.0" standalone="no"?><!DOCTYPE svg PUBLIC "-//W3C//DTD SVG 1.1//EN" "http://www.w3.org/Graphics/SVG/1.1/DTD/svg11.dtd"><svg class="icon" width="256px" height="256.00px" viewBox="0 0 1024 1024" version="1.1" xmlns="http://www.w3.org/2000/svg"><path d="M870.4 122.88a30.72 30.72 0 0 1 30.3104 25.7536L901.12 153.6v716.8a30.72 30.72 0 0 1-25.7536 30.3104L870.4 901.12H153.6a30.8736 30.8736 0 0 1-6.3488-0.6656l-4.2496-1.2288-4.5056-2.048-2.9184-1.8944-4.7616-4.3008-2.2016-2.7136-1.4336-2.2016-1.536-2.8672-1.3824-3.584-1.024-4.5056L122.88 870.4V153.6c0-4.9664 1.1264-9.5232 3.1744-13.6192l1.7408-3.072 2.7648-3.584 3.1744-3.1232 2.304-1.792 2.816-1.7408 4.7616-2.0992 2.7136-0.8192 2.304-0.4608 4.1472-0.4096H870.4z m-30.72 61.44H342.8864l178.8416 59.5968a30.72 30.72 0 0 1 20.5824 24.2688l0.4096 4.864v477.9008a30.72 30.72 0 0 1-16.4864 27.2384l-4.5056 1.8944L342.8864 839.68H839.68V184.32z m-655.36 11.8784v631.552l296.96-98.9696V295.168L184.32 196.1984z m208.2304 245.248a30.72 30.72 0 0 1 30.3104 25.7536l0.4096 4.9664v79.6672a30.72 30.72 0 0 1-61.0304 4.9664l-0.4096-4.9664V472.1664a30.72 30.72 0 0 1 30.72-30.72z" fill="#ffffff" /></svg>