<?xml version="1.0" standalone="no"?><!DOCTYPE svg PUBLIC "-//W3C//DTD SVG 1.1//EN" "http://www.w3.org/Graphics/SVG/1.1/DTD/svg11.dtd"><svg class="icon" width="256px" height="256.00px" viewBox="0 0 1024 1024" version="1.1" xmlns="http://www.w3.org/2000/svg"><path d="M934.84032 774.05184H603.12576a21.84192 21.84192 0 0 1 0-43.68384h331.71456a21.84192 21.84192 0 0 1 0 43.68384z" fill="#1afa29" /><path d="M768.98304 939.90912a21.84192 21.84192 0 0 1-21.84192-21.84192V586.35264a21.84192 21.84192 0 0 1 43.68384 0v331.71456a21.84192 21.84192 0 0 1-21.84192 21.84192zM464.5376 664.99584a20.59264 20.59264 0 0 1-14.592-6.0416L300.93312 509.93152a20.6336 20.6336 0 0 1 0-29.184l187.21792-187.21792a20.6336 20.6336 0 0 1 29.184 0l141.44512 141.44512a20.6336 20.6336 0 0 1-29.184 29.184L502.7328 337.3056 344.69888 495.33952 479.1296 629.77024a20.6336 20.6336 0 0 1-14.592 35.2256z" fill="#1afa29" /><path d="M565.57568 888.39168a398.58176 398.58176 0 0 1-59.6992 4.49536c-219.07456 0-397.28128-178.21696-397.28128-397.28128 0-219.05408 178.21696-397.28128 397.28128-397.28128s397.28128 178.21696 397.28128 397.28128c0 8.25344-0.33792 16.4352-0.83968 24.56576h41.37984c0.45056-8.1408 0.72704-16.32256 0.72704-24.56576 0-241.8176-196.74112-438.54848-438.55872-438.54848S67.31776 253.78816 67.31776 495.59552s196.74112 438.55872 438.55872 438.55872a440.0128 440.0128 0 0 0 59.6992-4.16768v-41.59488z" fill="#1afa29" /><path d="M564.5312 909.16864m-20.69504 0a20.69504 20.69504 0 1 0 41.39008 0 20.69504 20.69504 0 1 0-41.39008 0Z" fill="#1afa29" /><path d="M923.0848 517.66272m-20.69504 0a20.69504 20.69504 0 1 0 41.39008 0 20.69504 20.69504 0 1 0-41.39008 0Z" fill="#1afa29" /></svg>