<svg xmlns="http://www.w3.org/2000/svg" viewBox="0 0 128 128">
  <rect width="128" height="64" fill="#ED2939"/>
  <rect y="64" width="128" height="64" fill="#FFFFFF"/>
  <circle cx="36" cy="40" r="20" fill="#FFFFFF"/>
  <circle cx="42" cy="40" r="16" fill="#ED2939"/>
  <g fill="#FFFFFF">
    <polygon points="0,-5 1.3,-1.6 4.8,-1.6 2.0,0.4 3.2,4.2 0,2.0 -3.2,4.2 -2.0,0.4 -4.8,-1.6 -1.3,-1.6" transform="translate(60 20)"/>
    <polygon points="0,-5 1.3,-1.6 4.8,-1.6 2.0,0.4 3.2,4.2 0,2.0 -3.2,4.2 -2.0,0.4 -4.8,-1.6 -1.3,-1.6" transform="translate(68 26)"/>
    <polygon points="0,-5 1.3,-1.6 4.8,-1.6 2.0,0.4 3.2,4.2 0,2.0 -3.2,4.2 -2.0,0.4 -4.8,-1.6 -1.3,-1.6" transform="translate(68 38)"/>
    <polygon points="0,-5 1.3,-1.6 4.8,-1.6 2.0,0.4 3.2,4.2 0,2.0 -3.2,4.2 -2.0,0.4 -4.8,-1.6 -1.3,-1.6" transform="translate(60 44)"/>
    <polygon points="0,-5 1.3,-1.6 4.8,-1.6 2.0,0.4 3.2,4.2 0,2.0 -3.2,4.2 -2.0,0.4 -4.8,-1.6 -1.3,-1.6" transform="translate(52 38)"/>
  </g>
</svg>
