<?xml version="1.0" standalone="no"?><!DOCTYPE svg PUBLIC "-//W3C//DTD SVG 1.1//EN" "http://www.w3.org/Graphics/SVG/1.1/DTD/svg11.dtd"><svg class="icon" width="256px" height="256.00px" viewBox="0 0 1024 1024" version="1.1" xmlns="http://www.w3.org/2000/svg"><path d="M383.488 31.36a485.504 485.504 0 0 0-199.04 107.648 33.792 33.792 0 0 0-7.552 40.512c6.656 12.928 10.112 27.2 10.112 41.92 0 49.92-39.936 91.2-91.392 95.68l-10.624 0.384a33.792 33.792 0 0 0-32.64 23.36A452.928 452.928 0 0 0 40 575.36c3.584 16.768 19.2 28.224 36.288 26.624 3.328-0.32 6.72-0.512 10.112-0.512 55.808 0 100.608 43.264 100.608 96.064 0 22.784-8.32 44.288-23.296 61.44a33.792 33.792 0 0 0 1.536 46.08c57.6 57.856 129.664 100.48 209.344 123.456a33.792 33.792 0 0 0 41.472-21.888c13.056-39.488 51.584-67.072 95.936-67.072 44.352 0 82.88 27.584 96 67.072 5.632 17.28 23.936 26.88 41.408 21.888a484.608 484.608 0 0 0 209.344-123.456 33.792 33.792 0 0 0 1.536-46.08 92.928 92.928 0 0 1-23.296-61.44c0-52.8 44.8-96 100.608-96 3.392 0 6.784 0.128 10.112 0.448a33.792 33.792 0 0 0 36.288-26.624 454.336 454.336 0 0 0-12.352-234.496 33.792 33.792 0 0 0-32.64-23.36h-1.408c-55.808 0-100.608-43.264-100.608-96 0-14.784 3.456-29.056 10.112-41.984a33.792 33.792 0 0 0-7.552-40.512A485.504 485.504 0 0 0 640.512 31.36a33.792 33.792 0 0 0-38.592 16.832A101.184 101.184 0 0 1 512 101.12c-38.528 0-72.96-20.8-89.92-52.928A33.792 33.792 0 0 0 383.488 31.36z m262.656 72.256l14.72 5.12c37.056 13.696 71.808 32.512 103.232 55.808l12.48 9.664-2.752 9.728c-2.944 12.16-4.48 24.768-4.48 37.504l0.384 10.432c4.864 75.456 62.208 136.768 136.576 150.4l7.296 1.088 4.16 17.28c5.568 26.24 8.448 53.12 8.448 80.512l-0.512 20.288c-0.384 6.784-0.896 13.44-1.6 20.16l-1.728 13.056-5.76 0.512c-82.816 10.048-147.2 78.72-147.2 162.368l0.512 13.056c1.728 21.504 7.808 42.24 17.728 61.12l2.688 4.736-7.68 6.72a417.216 417.216 0 0 1-115.2 67.904l-9.408 3.392-0.384-0.832A169.152 169.152 0 0 0 512 771.968l-12.16 0.384a169.28 169.28 0 0 0-127.232 71.616l-6.72 10.496-9.344-3.392a417.216 417.216 0 0 1-115.2-67.904l-7.744-6.72 2.752-4.736c11.84-22.656 18.24-48 18.24-74.176l-0.32-10.368c-5.12-78.912-67.52-142.336-146.816-152l-5.888-0.512-1.664-13.056a389.376 389.376 0 0 1-2.112-40.448l0.512-20.48c1.088-20.288 3.712-40.32 7.936-60.032l4.096-17.28 7.36-1.088c77.76-14.272 136.96-80.64 136.96-160.832l-0.576-12.672a159.36 159.36 0 0 0-3.904-24.832l-2.816-9.728 12.544-9.664a418.048 418.048 0 0 1 103.232-55.872l14.656-5.056 3.52 4.48c31.36 37.76 79.04 60.608 130.688 60.608 51.648 0 99.264-22.912 130.688-60.544l3.456-4.544z" fill="#ffffff" /><path d="M512 295.872c-104.96 0-190.592 82.688-190.592 185.28S406.976 666.432 512 666.432c104.96 0 190.592-82.688 190.592-185.28S617.024 295.872 512 295.872z m0 67.584c68.16 0 123.008 52.992 123.008 117.696 0 64.704-54.848 117.696-123.008 117.696s-123.008-52.992-123.008-117.76c0-64.64 54.848-117.632 123.008-117.632z" fill="#ffffff" /></svg>